<svg viewBox="0 0 400 600" xmlns="http://www.w3.org/2000/svg"><rect width="400" height="600" fill="#500E06"/><rect x="16" y="16" width="368" height="568" fill="none" stroke="#EDE0D0" stroke-width="6" opacity="0.2"/><g fill="#3A0802" opacity="0.9"><polygon points="60,30 80,50 60,70 40,50"/><polygon points="100,30 120,50 100,70 80,50"/><polygon points="140,30 160,50 140,70 120,50"/><polygon points="180,30 200,50 180,70 160,50"/><polygon points="220,30 240,50 220,70 200,50"/><polygon points="260,30 280,50 260,70 240,50"/><polygon points="300,30 320,50 300,70 280,50"/><polygon points="340,30 360,50 340,70 320,50"/></g></svg>