<svg viewBox="0 0 400 600" xmlns="http://www.w3.org/2000/svg"><rect width="400" height="600" fill="#0D1520"/><rect x="16" y="16" width="368" height="568" fill="none" stroke="#1E2B3D" stroke-width="8"/><rect x="28" y="28" width="344" height="544" fill="none" stroke="#F4EFE7" stroke-width="0.5" opacity="0.15"/><g fill="#F4EFE7" opacity="0.8"><polygon points="200,140 250,180 270,230 250,280 200,310 150,280 130,230 150,180"/></g><g fill="#F4EFE7" opacity="0.2"><circle cx="200" cy="225" r="50"/></g><g fill="#0D1520"><circle cx="200" cy="225" r="30"/></g><g fill="#F4EFE7" opacity="0.7"><circle cx="200" cy="225" r="8"/></g><g fill="#8B3A2E" opacity="0.45"><rect x="155" y="115" width="12" height="12" transform="rotate(45 161 121)"/><rect x="233" y="115" width="12" height="12" transform="rotate(45 239 121)"/></g><g stroke="#F4EFE7" stroke-width="1" fill="none" opacity="0.1"><line x1="50" y1="50" x2="50" y2="550"/><line x1="350" y1="50" x2="350" y2="550"/><line x1="50" y1="400" x2="350" y2="400"/><line x1="50" y1="450" x2="350" y2="450"/><line x1="50" y1="500" x2="350" y2="500"/></g></svg>