<svg viewBox="0 0 400 600" xmlns="http://www.w3.org/2000/svg">
  <rect width="400" height="600" fill="#C8843A"/>
  <rect x="20" y="20" width="360" height="560" fill="none" stroke="#F4EFE7" stroke-width="8"/>
  <rect x="36" y="36" width="328" height="528" fill="none" stroke="#8B3A2E" stroke-width="2"/>
  <!-- Diamond lattice -->
  <g fill="#8B3A2E" opacity="0.85">
    <polygon points="200,80 240,120 200,160 160,120"/>
    <polygon points="120,160 160,200 120,240 80,200"/>
    <polygon points="280,160 320,200 280,240 240,200"/>
    <polygon points="200,240 240,280 200,320 160,280"/>
    <polygon points="120,320 160,360 120,400 80,360"/>
    <polygon points="280,320 320,360 280,400 240,360"/>
    <polygon points="200,400 240,440 200,480 160,440"/>
    <polygon points="120,480 160,520 120,560 80,520"/>
    <polygon points="280,480 320,520 280,560 240,520"/>
  </g>
  <!-- Tafaout star center -->
  <g fill="#F4EFE7" opacity="0.6">
    <polygon points="200,262 208,276 200,290 192,276"/>
    <polygon points="186,268 200,260 214,268 200,276"/>
  </g>
  <!-- Border hooks -->
  <g stroke="#1A1715" stroke-width="1" fill="none" opacity="0.3">
    <line x1="44" y1="44" x2="44" y2="556"/>
    <line x1="356" y1="44" x2="356" y2="556"/>
  </g>
</svg>